# xmcd CD database file
#
# Track frame offsets:
#	150
#	19248
#	36639
#	66513
#	89144
#	117483
#	148291
#	170132
#	189900
#	221738
#	240460
#
# Disc length: 3811 seconds
#
# Revision: 0
# Processed by: cddbd v1.5.1PL0 Copyright (c) Steve Scherf et al.
# Submitted via: CDex 1.51
#
DISCID=b40ee10b
DTITLE=Cæcilie Norby - London-Paris
DYEAR=2004
DGENRE=Jazz
TTITLE0=Face it girl its over
TTITLE1=How deep is your love
TTITLE2=But not for me
TTITLE3=Both sides now
TTITLE4=Cuban Cigars
TTITLE5=In a sentimental mood
TTITLE6=Rules of the road
TTITLE7=The good life
TTITLE8=You dont know what love is
TTITLE9=Sorry seems to be the hardest word
TTITLE10=African fairytale
EXTD=YEAR: 2004
EXTT0=
EXTT1=
EXTT2=
EXTT3=
EXTT4=
EXTT5=
EXTT6=
EXTT7=
EXTT8=
EXTT9=
EXTT10=
PLAYORDER=
